<?xml version="1.0" encoding="UTF-8"?>
<svg width="15px" height="15px" viewBox="0 0 15 15" version="1.1" xmlns="http://www.w3.org/2000/svg" xmlns:xlink="http://www.w3.org/1999/xlink">
    <!-- Generator: Sketch 46.2 (44496) - http://www.bohemiancoding.com/sketch -->
    <title>Combined Shape</title>
    <desc>Created with Sketch.</desc>
    <defs></defs>
    <g id="Page-1" stroke="none" stroke-width="1" fill="none" fill-rule="evenodd">
        <path d="M5.80435534,0.00979543214 C5.84931315,-6.75706672e-05 6.18161006,-0.00204017123 6.54127259,0.00190502989 C6.90093512,0.00782283158 7.66717269,0.0176858344 8.24185086,0.0255762366 C9.12927907,0.0393844406 9.29933689,0.0453022422 9.36970565,0.0729186501 C9.41466346,0.0906720551 10.5366542,0.838287668 11.8599777,1.73779352 C14.430392,3.47959982 14.4909873,3.52496963 14.7040483,3.82677752 C15.1633999,4.4757631 15.0832577,5.27861153 14.4968514,5.8664465 C14.3150655,6.05187095 14.0707295,6.2215146 11.1836558,8.16847135 C9.48503222,9.31652488 9.12536969,9.54731914 8.83998529,9.68342858 C7.88023364,10.1410719 6.88529762,10.1016199 5.94900223,9.57099035 C5.61475063,9.3816207 3.72847703,8.12310154 1.80115499,6.80343176 C0.714348644,6.05976135 0.643979888,6.00847374 0.471967373,5.82502189 C0.0282532714,5.34765255 -0.108574865,4.78940659 0.0868939015,4.23510583 C0.219812663,3.85439393 0.491514249,3.54666824 0.999733044,3.19357274 C1.64477997,2.74973761 5.57761157,0.100535058 5.64798032,0.0630556473 C5.69098345,0.0413570411 5.76135221,0.0176858344 5.80435534,0.00979543214 Z M6.34580382,1.3077666 C6.76410698,1.53856087 7.03189919,1.62141009 7.42088204,1.6391635 C7.84504927,1.6569169 8.19689305,1.56617727 8.63083371,1.32157481 C8.89080717,1.17560236 8.95922124,1.15784896 9.0765025,1.19927357 C9.11950563,1.21505437 9.63945255,1.55631427 10.2297682,1.95477959 C10.8181292,2.3552175 11.7915637,3.01406609 12.3936075,3.4204218 C12.9936966,3.82480492 13.5488279,4.20748943 13.6270154,4.26864004 C13.773617,4.38699608 13.8772154,4.52310552 13.9143545,4.64737935 C13.9593123,4.79729699 13.8518045,4.99850225 13.6309248,5.1780089 C13.5683748,5.22929652 12.8216841,5.74020006 11.9694403,6.31619943 C11.1171964,6.89219879 10.0167073,7.6358692 9.52217129,7.9712113 C8.60151339,8.59455307 8.409954,8.70699131 8.11088679,8.79970353 C7.94669302,8.85099115 7.9193274,8.85296375 7.52838986,8.85296375 C7.14722577,8.85296375 7.10422264,8.84901855 6.92634606,8.79970353 C6.63705229,8.72079951 6.42399133,8.60638868 5.8571319,8.22173157 C5.5717475,8.02644411 4.44975678,7.2669929 3.36295044,6.53318549 C1.70928467,5.41472097 1.36916901,5.1780089 1.26947994,5.07148847 C1.15219868,4.94326943 1.08769399,4.8150504 1.08769399,4.70458477 C1.08769399,4.61976294 1.17760962,4.4520919 1.27925338,4.34951667 C1.33398464,4.29428385 1.99466907,3.83664052 2.89773477,3.22710695 C3.73434109,2.66294319 4.748824,1.97845079 5.14953497,1.70623191 C5.54829125,1.43401304 5.9059991,1.20321877 5.94118347,1.19335577 C6.04282723,1.16179416 6.1268788,1.18743797 6.34580382,1.3077666 Z M0.0255856011,7.05989305 L0.0490962458,7 L0.973848271,7.67807487 C3.75594123,9.71871658 5.69165097,11.1176471 5.93851274,11.2652406 C6.68105727,11.7101604 7.09249355,11.8513369 7.59209475,11.8299465 C8.1152066,11.8064171 8.41692654,11.6631016 9.62968396,10.8566845 C10.4094537,10.3368984 11.0128936,9.9026738 12.6664756,8.67058824 C13.8028234,7.82352941 14.9097829,7.02352941 14.9470081,7.02352941 C14.972478,7.02352941 15.0018663,7.22245989 14.9999071,7.39786096 C14.9999071,7.64171123 14.9626819,7.79358289 14.8431694,8.06096257 C14.7256162,8.32192513 14.572797,8.52513369 14.3514051,8.71764706 C14.2593217,8.79893048 13.0661565,9.68235294 11.6966615,10.6834225 C9.06151005,12.6106952 8.95375293,12.6834225 8.51684678,12.8395722 C8.14067646,12.9743316 7.98002039,13 7.49413373,13 C7.0004102,13 6.86522399,12.9786096 6.45966537,12.831016 C6.04822909,12.6812834 5.9247982,12.597861 3.97733313,11.1775401 C0.958174508,8.97433155 0.711312738,8.79037433 0.536942123,8.61069519 C0.284202693,8.35187166 0.115709739,8.05668449 0.0353817031,7.72941176 C-0.00576192517,7.56256684 -0.0135988067,7.15187166 0.0255856011,7.05989305 Z M0.070546351,9.02116584 C0.084263697,8.98240066 0.0431116589,8.95383683 0.529097632,9.34556926 C0.993527776,9.71893924 1.4559983,10.0719065 2.09875394,10.539129 C2.82969252,11.0736806 6.28058486,13.4628403 6.47654694,13.5709748 C7.0174023,13.8688547 7.58765197,13.9239421 8.14810354,13.7280758 C8.45772363,13.6199414 8.69287814,13.4689612 10.4722139,12.2325557 C13.1314194,10.3861085 13.474353,10.1371952 14.2327263,9.5251133 C14.657964,9.18030715 14.875482,9.02320612 14.8931185,9.04360885 C14.9029166,9.05176994 14.9283917,9.11909895 14.9538668,9.19254878 C15.0734037,9.56183821 14.9538668,10.1331147 14.673641,10.5289277 C14.4796385,10.8023242 14.3385458,10.9063782 11.0718579,13.1772021 C9.3846243,14.3523994 9.20041994,14.4748158 8.90451719,14.6319168 C7.98937425,15.1154615 7.02720041,15.1236226 6.11401708,14.6502793 C5.89453955,14.5380643 5.63586959,14.3707619 4.76187869,13.7770424 C3.70956229,13.0629468 0.793646448,11.0083918 0.589845879,10.8370089 C0.209679432,10.5187263 0,10.0698662 0,9.5699993 C0,9.43534128 0.0431116589,9.09461568 0.070546351,9.02116584 Z" id="Combined-Shape" fill="#D3D3D3" fill-rule="nonzero"></path>
    </g>
</svg>